<svg xmlns="http://www.w3.org/2000/svg" xml:space="preserve" width="1691.991" height="1676.808"><path d="M7454.736 16719.72c1.2-.601 2.42-1.101 3.66-1.597 246.33-103.902 519.92-134.402 780.62-75 2556.4 581.796 4465.4 2869.298 4465.4 5602.898v3007.1c-224.7-48.9-457.7-104-684.4-166.4h-2.1c-1114-305.8-2088.6-780.1-1382.4-1436.5 1372-1274.2-1165-1768.2-2895.78-2140.6-2704.42-580.4-5107.18-2737.7-285-4789.901" style="fill:#2855a3;fill-opacity:1;fill-rule:nonzero;stroke:none" transform="matrix(.13333 0 0 -.13333 -1.931 3891.883)"/><path d="M14.486 23442.221v-1191.6c0-489.5 478.8-833.5 943.62-680.1 551.9 182.2 1190.46 341.9 1927.21 472.7 6233.7 1104.6 5278.8 1560.2 4801.38 1858.7-477.44 299.6-1301.24 1001.7 1254.42 1514.5 1312.7 264.2 2712.7 409.8 3763.3 488.9v3283.8h-6943.06c-3173.91 0-5746.87-2573-5746.87-5746.9" style="fill:#6dd0f6;fill-opacity:1;fill-rule:nonzero;stroke:none" transform="matrix(.13333 0 0 -.13333 -1.931 3891.883)"/><path d="M12020.016 25086.721c275.9 78.9 684.4 166.4 684.4 166.4-224.7-48.9-457.7-104-684.4-166.4" style="fill:#c4c2c1;fill-opacity:1;fill-rule:nonzero;stroke:none" transform="matrix(.13333 0 0 -.13333 -1.931 3891.883)"/><path d="M7454.736 16719.72c-2010.81 855.699-2765.33 1729.801-2765.55 2500.101-.31 1077 1473.85 1951.4 3050.55 2289.8 1385.18 298 3286.58 674 3287.58 1465.3.3 197.5-117.8 420.9-391.8 675.3-166.2 154.5-239.3 298.9-239.4 433.4-.4 436.9 770 769.3 1621.8 1003.1h2.1c226.7 62.4 459.7 117.5 684.4 166.4v-966.3c-840.5-301.6-1404.2-719.8-820.7-1260.7 1372-1274.2-1165-1768.2-2895.8-2140.6-2430.84-522.2-4618.29-2317.5-1533.18-4165.801" style="fill:#22427a;fill-opacity:1;fill-rule:nonzero;stroke:none" transform="matrix(.13333 0 0 -.13333 -1.931 3891.883)"/></svg>